<?xml version="1.0" encoding="utf-8" standalone="no"?>
<!DOCTYPE svg PUBLIC "-//W3C//DTD SVG 1.1//EN"
  "http://www.w3.org/Graphics/SVG/1.1/DTD/svg11.dtd">
<!-- Created with matplotlib (https://matplotlib.org/) -->
<svg height="720pt" version="1.1" viewBox="0 0 1152 720" width="1152pt" xmlns="http://www.w3.org/2000/svg" xmlns:xlink="http://www.w3.org/1999/xlink">
 <defs>
  <style type="text/css">
*{stroke-linecap:butt;stroke-linejoin:round;}
  </style>
 </defs>
 <g id="figure_1">
  <g id="patch_1">
   <path d="M 0 720 
L 1152 720 
L 1152 0 
L 0 0 
z
" style="fill:#ffffff;"/>
  </g>
  <g id="axes_1">
   <g id="patch_2">
    <path d="M 144 180.124138 
L 1036.8 180.124138 
L 1036.8 86.4 
L 144 86.4 
z
" style="fill:#ffffff;"/>
   </g>
   <g id="matplotlib.axis_1">
    <g id="xtick_1">
     <g id="line2d_1">
      <defs>
       <path d="M 0 0 
L 0 3.5 
" id="m9d8e6acca3" style="stroke:#000000;stroke-width:0.8;"/>
      </defs>
      <g>
       <use style="stroke:#000000;stroke-width:0.8;" x="144" xlink:href="#m9d8e6acca3" y="180.124138"/>
      </g>
     </g>
    </g>
    <g id="xtick_2">
     <g id="line2d_2">
      <g>
       <use style="stroke:#000000;stroke-width:0.8;" x="325.586441" xlink:href="#m9d8e6acca3" y="180.124138"/>
      </g>
     </g>
    </g>
    <g id="xtick_3">
     <g id="line2d_3">
      <g>
       <use style="stroke:#000000;stroke-width:0.8;" x="507.172881" xlink:href="#m9d8e6acca3" y="180.124138"/>
      </g>
     </g>
    </g>
    <g id="xtick_4">
     <g id="line2d_4">
      <g>
       <use style="stroke:#000000;stroke-width:0.8;" x="688.759322" xlink:href="#m9d8e6acca3" y="180.124138"/>
      </g>
     </g>
    </g>
    <g id="xtick_5">
     <g id="line2d_5">
      <g>
       <use style="stroke:#000000;stroke-width:0.8;" x="870.345763" xlink:href="#m9d8e6acca3" y="180.124138"/>
      </g>
     </g>
    </g>
    <g id="xtick_6">
     <g id="line2d_6">
      <defs>
       <path d="M 0 0 
L 0 2 
" id="m0906959b44" style="stroke:#000000;stroke-width:0.6;"/>
      </defs>
      <g>
       <use style="stroke:#000000;stroke-width:0.6;" x="189.39661" xlink:href="#m0906959b44" y="180.124138"/>
      </g>
     </g>
    </g>
    <g id="xtick_7">
     <g id="line2d_7">
      <g>
       <use style="stroke:#000000;stroke-width:0.6;" x="234.79322" xlink:href="#m0906959b44" y="180.124138"/>
      </g>
     </g>
    </g>
    <g id="xtick_8">
     <g id="line2d_8">
      <g>
       <use style="stroke:#000000;stroke-width:0.6;" x="280.189831" xlink:href="#m0906959b44" y="180.124138"/>
      </g>
     </g>
    </g>
    <g id="xtick_9">
     <g id="line2d_9">
      <g>
       <use style="stroke:#000000;stroke-width:0.6;" x="370.983051" xlink:href="#m0906959b44" y="180.124138"/>
      </g>
     </g>
    </g>
    <g id="xtick_10">
     <g id="line2d_10">
      <g>
       <use style="stroke:#000000;stroke-width:0.6;" x="416.379661" xlink:href="#m0906959b44" y="180.124138"/>
      </g>
     </g>
    </g>
    <g id="xtick_11">
     <g id="line2d_11">
      <g>
       <use style="stroke:#000000;stroke-width:0.6;" x="461.776271" xlink:href="#m0906959b44" y="180.124138"/>
      </g>
     </g>
    </g>
    <g id="xtick_12">
     <g id="line2d_12">
      <g>
       <use style="stroke:#000000;stroke-width:0.6;" x="552.569492" xlink:href="#m0906959b44" y="180.124138"/>
      </g>
     </g>
    </g>
    <g id="xtick_13">
     <g id="line2d_13">
      <g>
       <use style="stroke:#000000;stroke-width:0.6;" x="597.966102" xlink:href="#m0906959b44" y="180.124138"/>
      </g>
     </g>
    </g>
    <g id="xtick_14">
     <g id="line2d_14">
      <g>
       <use style="stroke:#000000;stroke-width:0.6;" x="643.362712" xlink:href="#m0906959b44" y="180.124138"/>
      </g>
     </g>
    </g>
    <g id="xtick_15">
     <g id="line2d_15">
      <g>
       <use style="stroke:#000000;stroke-width:0.6;" x="734.155932" xlink:href="#m0906959b44" y="180.124138"/>
      </g>
     </g>
    </g>
    <g id="xtick_16">
     <g id="line2d_16">
      <g>
       <use style="stroke:#000000;stroke-width:0.6;" x="779.552542" xlink:href="#m0906959b44" y="180.124138"/>
      </g>
     </g>
    </g>
    <g id="xtick_17">
     <g id="line2d_17">
      <g>
       <use style="stroke:#000000;stroke-width:0.6;" x="824.949153" xlink:href="#m0906959b44" y="180.124138"/>
      </g>
     </g>
    </g>
    <g id="xtick_18">
     <g id="line2d_18">
      <g>
       <use style="stroke:#000000;stroke-width:0.6;" x="915.742373" xlink:href="#m0906959b44" y="180.124138"/>
      </g>
     </g>
    </g>
    <g id="xtick_19">
     <g id="line2d_19">
      <g>
       <use style="stroke:#000000;stroke-width:0.6;" x="961.138983" xlink:href="#m0906959b44" y="180.124138"/>
      </g>
     </g>
    </g>
    <g id="xtick_20">
     <g id="line2d_20">
      <g>
       <use style="stroke:#000000;stroke-width:0.6;" x="1006.535593" xlink:href="#m0906959b44" y="180.124138"/>
      </g>
     </g>
    </g>
   </g>
   <g id="matplotlib.axis_2">
    <g id="ytick_1">
     <g id="line2d_21">
      <defs>
       <path d="M 0 0 
L -3.5 0 
" id="m1ab4dac23e" style="stroke:#000000;stroke-width:0.8;"/>
      </defs>
      <g>
       <use style="stroke:#000000;stroke-width:0.8;" x="144" xlink:href="#m1ab4dac23e" y="150.80402"/>
      </g>
     </g>
     <g id="text_1">
      <!-- 100 -->
      <defs>
       <path d="M 12.40625 8.296875 
L 28.515625 8.296875 
L 28.515625 63.921875 
L 10.984375 60.40625 
L 10.984375 69.390625 
L 28.421875 72.90625 
L 38.28125 72.90625 
L 38.28125 8.296875 
L 54.390625 8.296875 
L 54.390625 0 
L 12.40625 0 
z
" id="DejaVuSans-49"/>
       <path d="M 31.78125 66.40625 
Q 24.171875 66.40625 20.328125 58.90625 
Q 16.5 51.421875 16.5 36.375 
Q 16.5 21.390625 20.328125 13.890625 
Q 24.171875 6.390625 31.78125 6.390625 
Q 39.453125 6.390625 43.28125 13.890625 
Q 47.125 21.390625 47.125 36.375 
Q 47.125 51.421875 43.28125 58.90625 
Q 39.453125 66.40625 31.78125 66.40625 
z
M 31.78125 74.21875 
Q 44.046875 74.21875 50.515625 64.515625 
Q 56.984375 54.828125 56.984375 36.375 
Q 56.984375 17.96875 50.515625 8.265625 
Q 44.046875 -1.421875 31.78125 -1.421875 
Q 19.53125 -1.421875 13.0625 8.265625 
Q 6.59375 17.96875 6.59375 36.375 
Q 6.59375 54.828125 13.0625 64.515625 
Q 19.53125 74.21875 31.78125 74.21875 
z
" id="DejaVuSans-48"/>
      </defs>
      <g transform="translate(117.9125 154.603239)scale(0.1 -0.1)">
       <use xlink:href="#DejaVuSans-49"/>
       <use x="63.623047" xlink:href="#DejaVuSans-48"/>
       <use x="127.246094" xlink:href="#DejaVuSans-48"/>
      </g>
     </g>
    </g>
    <g id="ytick_2">
     <g id="line2d_22">
      <g>
       <use style="stroke:#000000;stroke-width:0.8;" x="144" xlink:href="#m1ab4dac23e" y="119.479108"/>
      </g>
     </g>
     <g id="text_2">
      <!-- 150 -->
      <defs>
       <path d="M 10.796875 72.90625 
L 49.515625 72.90625 
L 49.515625 64.59375 
L 19.828125 64.59375 
L 19.828125 46.734375 
Q 21.96875 47.46875 24.109375 47.828125 
Q 26.265625 48.1875 28.421875 48.1875 
Q 40.625 48.1875 47.75 41.5 
Q 54.890625 34.8125 54.890625 23.390625 
Q 54.890625 11.625 47.5625 5.09375 
Q 40.234375 -1.421875 26.90625 -1.421875 
Q 22.3125 -1.421875 17.546875 -0.640625 
Q 12.796875 0.140625 7.71875 1.703125 
L 7.71875 11.625 
Q 12.109375 9.234375 16.796875 8.0625 
Q 21.484375 6.890625 26.703125 6.890625 
Q 35.15625 6.890625 40.078125 11.328125 
Q 45.015625 15.765625 45.015625 23.390625 
Q 45.015625 31 40.078125 35.4375 
Q 35.15625 39.890625 26.703125 39.890625 
Q 22.75 39.890625 18.8125 39.015625 
Q 14.890625 38.140625 10.796875 36.28125 
z
" id="DejaVuSans-53"/>
      </defs>
      <g transform="translate(117.9125 123.278326)scale(0.1 -0.1)">
       <use xlink:href="#DejaVuSans-49"/>
       <use x="63.623047" xlink:href="#DejaVuSans-53"/>
       <use x="127.246094" xlink:href="#DejaVuSans-48"/>
      </g>
     </g>
    </g>
    <g id="ytick_3">
     <g id="line2d_23">
      <g>
       <use style="stroke:#000000;stroke-width:0.8;" x="144" xlink:href="#m1ab4dac23e" y="88.154195"/>
      </g>
     </g>
     <g id="text_3">
      <!-- 200 -->
      <defs>
       <path d="M 19.1875 8.296875 
L 53.609375 8.296875 
L 53.609375 0 
L 7.328125 0 
L 7.328125 8.296875 
Q 12.9375 14.109375 22.625 23.890625 
Q 32.328125 33.6875 34.8125 36.53125 
Q 39.546875 41.84375 41.421875 45.53125 
Q 43.3125 49.21875 43.3125 52.78125 
Q 43.3125 58.59375 39.234375 62.25 
Q 35.15625 65.921875 28.609375 65.921875 
Q 23.96875 65.921875 18.8125 64.3125 
Q 13.671875 62.703125 7.8125 59.421875 
L 7.8125 69.390625 
Q 13.765625 71.78125 18.9375 73 
Q 24.125 74.21875 28.421875 74.21875 
Q 39.75 74.21875 46.484375 68.546875 
Q 53.21875 62.890625 53.21875 53.421875 
Q 53.21875 48.921875 51.53125 44.890625 
Q 49.859375 40.875 45.40625 35.40625 
Q 44.1875 33.984375 37.640625 27.21875 
Q 31.109375 20.453125 19.1875 8.296875 
z
" id="DejaVuSans-50"/>
      </defs>
      <g transform="translate(117.9125 91.953414)scale(0.1 -0.1)">
       <use xlink:href="#DejaVuSans-50"/>
       <use x="63.623047" xlink:href="#DejaVuSans-48"/>
       <use x="127.246094" xlink:href="#DejaVuSans-48"/>
      </g>
     </g>
    </g>
   </g>
   <g id="line2d_24">
    <path clip-path="url(#p3ae565c0f6)" d="M 144 131.382574 
L 159.132203 141.406546 
L 174.264407 145.792034 
L 189.39661 138.900553 
L 204.528814 90.660188 
L 219.661017 133.262069 
L 234.79322 98.804665 
L 249.925424 97.551669 
L 265.057627 124.491093 
L 280.189831 104.44315 
L 295.322034 91.286686 
L 310.454237 141.406546 
L 325.586441 126.370588 
L 340.718644 126.997086 
L 355.850847 101.937157 
L 370.983051 100.68416 
L 386.115254 157.695501 
L 401.247458 154.563009 
L 416.379661 153.936511 
L 431.511864 159.574995 
L 446.644068 173.357957 
L 461.776271 109.455136 
L 476.908475 118.226111 
L 492.040678 100.68416 
L 507.172881 153.936511 
L 522.305085 107.575641 
L 537.437288 105.069648 
L 552.569492 126.997086 
L 567.701695 171.478462 
L 582.833898 157.069002 
L 597.966102 162.707487 
L 613.098305 152.057016 
L 628.230508 115.720118 
L 643.362712 138.900553 
L 658.494915 126.370588 
L 673.627119 152.057016 
L 688.759322 162.080988 
L 703.891525 105.696146 
L 719.023729 100.68416 
L 734.155932 170.225466 
L 749.288136 175.86395 
L 764.420339 151.430518 
L 779.552542 94.419178 
L 794.684746 157.069002 
L 809.816949 146.418532 
L 824.949153 117.599613 
L 840.081356 138.274055 
L 855.213559 116.973115 
L 870.345763 128.250083 
L 885.477966 173.984455 
L 900.610169 172.10496 
L 915.742373 114.467122 
L 930.874576 147.671529 
L 946.00678 163.333985 
L 961.138983 133.888567 
L 976.271186 136.39456 
L 991.40339 147.04503 
L 1006.535593 144.539037 
L 1021.667797 166.466476 
L 1036.8 150.177522 
" style="fill:none;stroke:#1f77b4;stroke-linecap:square;stroke-width:1.5;"/>
   </g>
   <g id="patch_3">
    <path d="M 144 180.124138 
L 144 86.4 
" style="fill:none;stroke:#000000;stroke-linecap:square;stroke-linejoin:miter;stroke-width:0.8;"/>
   </g>
   <g id="patch_4">
    <path d="M 1036.8 180.124138 
L 1036.8 86.4 
" style="fill:none;stroke:#000000;stroke-linecap:square;stroke-linejoin:miter;stroke-width:0.8;"/>
   </g>
   <g id="patch_5">
    <path d="M 144 180.124138 
L 1036.8 180.124138 
" style="fill:none;stroke:#000000;stroke-linecap:square;stroke-linejoin:miter;stroke-width:0.8;"/>
   </g>
   <g id="patch_6">
    <path d="M 144 86.4 
L 1036.8 86.4 
" style="fill:none;stroke:#000000;stroke-linecap:square;stroke-linejoin:miter;stroke-width:0.8;"/>
   </g>
   <g id="legend_1">
    <g id="patch_7">
     <path d="M 949.626562 109.35625 
L 1029.8 109.35625 
Q 1031.8 109.35625 1031.8 107.35625 
L 1031.8 93.4 
Q 1031.8 91.4 1029.8 91.4 
L 949.626562 91.4 
Q 947.626562 91.4 947.626562 93.4 
L 947.626562 107.35625 
Q 947.626562 109.35625 949.626562 109.35625 
z
" style="fill:#ffffff;opacity:0.8;stroke:#cccccc;stroke-linejoin:miter;"/>
    </g>
    <g id="line2d_25">
     <path d="M 951.626562 99.498437 
L 971.626562 99.498437 
" style="fill:none;stroke:#1f77b4;stroke-linecap:square;stroke-width:1.5;"/>
    </g>
    <g id="line2d_26"/>
    <g id="text_4">
     <!-- column_0 -->
     <defs>
      <path d="M 48.78125 52.59375 
L 48.78125 44.1875 
Q 44.96875 46.296875 41.140625 47.34375 
Q 37.3125 48.390625 33.40625 48.390625 
Q 24.65625 48.390625 19.8125 42.84375 
Q 14.984375 37.3125 14.984375 27.296875 
Q 14.984375 17.28125 19.8125 11.734375 
Q 24.65625 6.203125 33.40625 6.203125 
Q 37.3125 6.203125 41.140625 7.25 
Q 44.96875 8.296875 48.78125 10.40625 
L 48.78125 2.09375 
Q 45.015625 0.34375 40.984375 -0.53125 
Q 36.96875 -1.421875 32.421875 -1.421875 
Q 20.0625 -1.421875 12.78125 6.34375 
Q 5.515625 14.109375 5.515625 27.296875 
Q 5.515625 40.671875 12.859375 48.328125 
Q 20.21875 56 33.015625 56 
Q 37.15625 56 41.109375 55.140625 
Q 45.0625 54.296875 48.78125 52.59375 
z
" id="DejaVuSans-99"/>
      <path d="M 30.609375 48.390625 
Q 23.390625 48.390625 19.1875 42.75 
Q 14.984375 37.109375 14.984375 27.296875 
Q 14.984375 17.484375 19.15625 11.84375 
Q 23.34375 6.203125 30.609375 6.203125 
Q 37.796875 6.203125 41.984375 11.859375 
Q 46.1875 17.53125 46.1875 27.296875 
Q 46.1875 37.015625 41.984375 42.703125 
Q 37.796875 48.390625 30.609375 48.390625 
z
M 30.609375 56 
Q 42.328125 56 49.015625 48.375 
Q 55.71875 40.765625 55.71875 27.296875 
Q 55.71875 13.875 49.015625 6.21875 
Q 42.328125 -1.421875 30.609375 -1.421875 
Q 18.84375 -1.421875 12.171875 6.21875 
Q 5.515625 13.875 5.515625 27.296875 
Q 5.515625 40.765625 12.171875 48.375 
Q 18.84375 56 30.609375 56 
z
" id="DejaVuSans-111"/>
      <path d="M 9.421875 75.984375 
L 18.40625 75.984375 
L 18.40625 0 
L 9.421875 0 
z
" id="DejaVuSans-108"/>
      <path d="M 8.5 21.578125 
L 8.5 54.6875 
L 17.484375 54.6875 
L 17.484375 21.921875 
Q 17.484375 14.15625 20.5 10.265625 
Q 23.53125 6.390625 29.59375 6.390625 
Q 36.859375 6.390625 41.078125 11.03125 
Q 45.3125 15.671875 45.3125 23.6875 
L 45.3125 54.6875 
L 54.296875 54.6875 
L 54.296875 0 
L 45.3125 0 
L 45.3125 8.40625 
Q 42.046875 3.421875 37.71875 1 
Q 33.40625 -1.421875 27.6875 -1.421875 
Q 18.265625 -1.421875 13.375 4.4375 
Q 8.5 10.296875 8.5 21.578125 
z
M 31.109375 56 
z
" id="DejaVuSans-117"/>
      <path d="M 52 44.1875 
Q 55.375 50.25 60.0625 53.125 
Q 64.75 56 71.09375 56 
Q 79.640625 56 84.28125 50.015625 
Q 88.921875 44.046875 88.921875 33.015625 
L 88.921875 0 
L 79.890625 0 
L 79.890625 32.71875 
Q 79.890625 40.578125 77.09375 44.375 
Q 74.3125 48.1875 68.609375 48.1875 
Q 61.625 48.1875 57.5625 43.546875 
Q 53.515625 38.921875 53.515625 30.90625 
L 53.515625 0 
L 44.484375 0 
L 44.484375 32.71875 
Q 44.484375 40.625 41.703125 44.40625 
Q 38.921875 48.1875 33.109375 48.1875 
Q 26.21875 48.1875 22.15625 43.53125 
Q 18.109375 38.875 18.109375 30.90625 
L 18.109375 0 
L 9.078125 0 
L 9.078125 54.6875 
L 18.109375 54.6875 
L 18.109375 46.1875 
Q 21.1875 51.21875 25.484375 53.609375 
Q 29.78125 56 35.6875 56 
Q 41.65625 56 45.828125 52.96875 
Q 50 49.953125 52 44.1875 
z
" id="DejaVuSans-109"/>
      <path d="M 54.890625 33.015625 
L 54.890625 0 
L 45.90625 0 
L 45.90625 32.71875 
Q 45.90625 40.484375 42.875 44.328125 
Q 39.84375 48.1875 33.796875 48.1875 
Q 26.515625 48.1875 22.3125 43.546875 
Q 18.109375 38.921875 18.109375 30.90625 
L 18.109375 0 
L 9.078125 0 
L 9.078125 54.6875 
L 18.109375 54.6875 
L 18.109375 46.1875 
Q 21.34375 51.125 25.703125 53.5625 
Q 30.078125 56 35.796875 56 
Q 45.21875 56 50.046875 50.171875 
Q 54.890625 44.34375 54.890625 33.015625 
z
" id="DejaVuSans-110"/>
      <path d="M 50.984375 -16.609375 
L 50.984375 -23.578125 
L -0.984375 -23.578125 
L -0.984375 -16.609375 
z
" id="DejaVuSans-95"/>
     </defs>
     <g transform="translate(979.626562 102.998437)scale(0.1 -0.1)">
      <use xlink:href="#DejaVuSans-99"/>
      <use x="54.980469" xlink:href="#DejaVuSans-111"/>
      <use x="116.162109" xlink:href="#DejaVuSans-108"/>
      <use x="143.945312" xlink:href="#DejaVuSans-117"/>
      <use x="207.324219" xlink:href="#DejaVuSans-109"/>
      <use x="304.736328" xlink:href="#DejaVuSans-110"/>
      <use x="368.115234" xlink:href="#DejaVuSans-95"/>
      <use x="418.115234" xlink:href="#DejaVuSans-48"/>
     </g>
    </g>
   </g>
  </g>
  <g id="axes_2">
   <g id="patch_8">
    <path d="M 144 292.593103 
L 1036.8 292.593103 
L 1036.8 198.868966 
L 144 198.868966 
z
" style="fill:#ffffff;"/>
   </g>
   <g id="matplotlib.axis_3">
    <g id="xtick_21">
     <g id="line2d_27">
      <g>
       <use style="stroke:#000000;stroke-width:0.8;" x="144" xlink:href="#m9d8e6acca3" y="292.593103"/>
      </g>
     </g>
    </g>
    <g id="xtick_22">
     <g id="line2d_28">
      <g>
       <use style="stroke:#000000;stroke-width:0.8;" x="325.586441" xlink:href="#m9d8e6acca3" y="292.593103"/>
      </g>
     </g>
    </g>
    <g id="xtick_23">
     <g id="line2d_29">
      <g>
       <use style="stroke:#000000;stroke-width:0.8;" x="507.172881" xlink:href="#m9d8e6acca3" y="292.593103"/>
      </g>
     </g>
    </g>
    <g id="xtick_24">
     <g id="line2d_30">
      <g>
       <use style="stroke:#000000;stroke-width:0.8;" x="688.759322" xlink:href="#m9d8e6acca3" y="292.593103"/>
      </g>
     </g>
    </g>
    <g id="xtick_25">
     <g id="line2d_31">
      <g>
       <use style="stroke:#000000;stroke-width:0.8;" x="870.345763" xlink:href="#m9d8e6acca3" y="292.593103"/>
      </g>
     </g>
    </g>
    <g id="xtick_26">
     <g id="line2d_32">
      <g>
       <use style="stroke:#000000;stroke-width:0.6;" x="189.39661" xlink:href="#m0906959b44" y="292.593103"/>
      </g>
     </g>
    </g>
    <g id="xtick_27">
     <g id="line2d_33">
      <g>
       <use style="stroke:#000000;stroke-width:0.6;" x="234.79322" xlink:href="#m0906959b44" y="292.593103"/>
      </g>
     </g>
    </g>
    <g id="xtick_28">
     <g id="line2d_34">
      <g>
       <use style="stroke:#000000;stroke-width:0.6;" x="280.189831" xlink:href="#m0906959b44" y="292.593103"/>
      </g>
     </g>
    </g>
    <g id="xtick_29">
     <g id="line2d_35">
      <g>
       <use style="stroke:#000000;stroke-width:0.6;" x="370.983051" xlink:href="#m0906959b44" y="292.593103"/>
      </g>
     </g>
    </g>
    <g id="xtick_30">
     <g id="line2d_36">
      <g>
       <use style="stroke:#000000;stroke-width:0.6;" x="416.379661" xlink:href="#m0906959b44" y="292.593103"/>
      </g>
     </g>
    </g>
    <g id="xtick_31">
     <g id="line2d_37">
      <g>
       <use style="stroke:#000000;stroke-width:0.6;" x="461.776271" xlink:href="#m0906959b44" y="292.593103"/>
      </g>
     </g>
    </g>
    <g id="xtick_32">
     <g id="line2d_38">
      <g>
       <use style="stroke:#000000;stroke-width:0.6;" x="552.569492" xlink:href="#m0906959b44" y="292.593103"/>
      </g>
     </g>
    </g>
    <g id="xtick_33">
     <g id="line2d_39">
      <g>
       <use style="stroke:#000000;stroke-width:0.6;" x="597.966102" xlink:href="#m0906959b44" y="292.593103"/>
      </g>
     </g>
    </g>
    <g id="xtick_34">
     <g id="line2d_40">
      <g>
       <use style="stroke:#000000;stroke-width:0.6;" x="643.362712" xlink:href="#m0906959b44" y="292.593103"/>
      </g>
     </g>
    </g>
    <g id="xtick_35">
     <g id="line2d_41">
      <g>
       <use style="stroke:#000000;stroke-width:0.6;" x="734.155932" xlink:href="#m0906959b44" y="292.593103"/>
      </g>
     </g>
    </g>
    <g id="xtick_36">
     <g id="line2d_42">
      <g>
       <use style="stroke:#000000;stroke-width:0.6;" x="779.552542" xlink:href="#m0906959b44" y="292.593103"/>
      </g>
     </g>
    </g>
    <g id="xtick_37">
     <g id="line2d_43">
      <g>
       <use style="stroke:#000000;stroke-width:0.6;" x="824.949153" xlink:href="#m0906959b44" y="292.593103"/>
      </g>
     </g>
    </g>
    <g id="xtick_38">
     <g id="line2d_44">
      <g>
       <use style="stroke:#000000;stroke-width:0.6;" x="915.742373" xlink:href="#m0906959b44" y="292.593103"/>
      </g>
     </g>
    </g>
    <g id="xtick_39">
     <g id="line2d_45">
      <g>
       <use style="stroke:#000000;stroke-width:0.6;" x="961.138983" xlink:href="#m0906959b44" y="292.593103"/>
      </g>
     </g>
    </g>
    <g id="xtick_40">
     <g id="line2d_46">
      <g>
       <use style="stroke:#000000;stroke-width:0.6;" x="1006.535593" xlink:href="#m0906959b44" y="292.593103"/>
      </g>
     </g>
    </g>
   </g>
   <g id="matplotlib.axis_4">
    <g id="ytick_4">
     <g id="line2d_47">
      <g>
       <use style="stroke:#000000;stroke-width:0.8;" x="144" xlink:href="#m1ab4dac23e" y="262.707724"/>
      </g>
     </g>
     <g id="text_5">
      <!-- 100 -->
      <g transform="translate(117.9125 266.506943)scale(0.1 -0.1)">
       <use xlink:href="#DejaVuSans-49"/>
       <use x="63.623047" xlink:href="#DejaVuSans-48"/>
       <use x="127.246094" xlink:href="#DejaVuSans-48"/>
      </g>
     </g>
    </g>
    <g id="ytick_5">
     <g id="line2d_48">
      <g>
       <use style="stroke:#000000;stroke-width:0.8;" x="144" xlink:href="#m1ab4dac23e" y="230.676234"/>
      </g>
     </g>
     <g id="text_6">
      <!-- 150 -->
      <g transform="translate(117.9125 234.475453)scale(0.1 -0.1)">
       <use xlink:href="#DejaVuSans-49"/>
       <use x="63.623047" xlink:href="#DejaVuSans-53"/>
       <use x="127.246094" xlink:href="#DejaVuSans-48"/>
      </g>
     </g>
    </g>
   </g>
   <g id="line2d_49">
    <path clip-path="url(#p80ad0c8415)" d="M 144 207.613562 
L 159.132203 285.129766 
L 174.264407 264.629613 
L 189.39661 268.473392 
L 204.528814 214.66049 
L 219.661017 231.957494 
L 234.79322 242.8482 
L 249.925424 225.551196 
L 265.057627 274.23906 
L 280.189831 276.160949 
L 295.322034 277.442209 
L 310.454237 213.37923 
L 325.586441 258.223315 
L 340.718644 226.191826 
L 355.850847 288.332915 
L 370.983051 268.473392 
L 386.115254 264.629613 
L 401.247458 269.754652 
L 416.379661 287.692286 
L 431.511864 209.535451 
L 446.644068 224.269937 
L 461.776271 255.660796 
L 476.908475 267.832762 
L 492.040678 256.301426 
L 507.172881 235.801273 
L 522.305085 258.863945 
L 537.437288 215.941749 
L 552.569492 284.489137 
L 567.701695 219.144898 
L 582.833898 222.348047 
L 597.966102 229.394975 
L 613.098305 237.082532 
L 628.230508 208.894822 
L 643.362712 259.504575 
L 658.494915 286.411026 
L 673.627119 249.895128 
L 688.759322 215.30112 
L 703.891525 265.910873 
L 719.023729 278.723469 
L 734.155932 256.301426 
L 749.288136 214.66049 
L 764.420339 217.863639 
L 779.552542 258.223315 
L 794.684746 207.613562 
L 809.816949 210.176081 
L 824.949153 242.8482 
L 840.081356 274.23906 
L 855.213559 203.129154 
L 870.345763 238.363792 
L 885.477966 265.910873 
L 900.610169 218.504269 
L 915.742373 219.785528 
L 930.874576 246.691979 
L 946.00678 221.707417 
L 961.138983 232.598124 
L 976.271186 215.30112 
L 991.40339 230.676234 
L 1006.535593 246.051349 
L 1021.667797 280.004728 
L 1036.8 257.582686 
" style="fill:none;stroke:#ff7f0e;stroke-linecap:square;stroke-width:1.5;"/>
   </g>
   <g id="patch_9">
    <path d="M 144 292.593103 
L 144 198.868966 
" style="fill:none;stroke:#000000;stroke-linecap:square;stroke-linejoin:miter;stroke-width:0.8;"/>
   </g>
   <g id="patch_10">
    <path d="M 1036.8 292.593103 
L 1036.8 198.868966 
" style="fill:none;stroke:#000000;stroke-linecap:square;stroke-linejoin:miter;stroke-width:0.8;"/>
   </g>
   <g id="patch_11">
    <path d="M 144 292.593103 
L 1036.8 292.593103 
" style="fill:none;stroke:#000000;stroke-linecap:square;stroke-linejoin:miter;stroke-width:0.8;"/>
   </g>
   <g id="patch_12">
    <path d="M 144 198.868966 
L 1036.8 198.868966 
" style="fill:none;stroke:#000000;stroke-linecap:square;stroke-linejoin:miter;stroke-width:0.8;"/>
   </g>
   <g id="legend_2">
    <g id="patch_13">
     <path d="M 151 254.709159 
L 231.173438 254.709159 
Q 233.173438 254.709159 233.173438 252.709159 
L 233.173438 238.752909 
Q 233.173438 236.752909 231.173438 236.752909 
L 151 236.752909 
Q 149 236.752909 149 238.752909 
L 149 252.709159 
Q 149 254.709159 151 254.709159 
z
" style="fill:#ffffff;opacity:0.8;stroke:#cccccc;stroke-linejoin:miter;"/>
    </g>
    <g id="line2d_50">
     <path d="M 153 244.851347 
L 173 244.851347 
" style="fill:none;stroke:#ff7f0e;stroke-linecap:square;stroke-width:1.5;"/>
    </g>
    <g id="line2d_51"/>
    <g id="text_7">
     <!-- column_1 -->
     <g transform="translate(181 248.351347)scale(0.1 -0.1)">
      <use xlink:href="#DejaVuSans-99"/>
      <use x="54.980469" xlink:href="#DejaVuSans-111"/>
      <use x="116.162109" xlink:href="#DejaVuSans-108"/>
      <use x="143.945312" xlink:href="#DejaVuSans-117"/>
      <use x="207.324219" xlink:href="#DejaVuSans-109"/>
      <use x="304.736328" xlink:href="#DejaVuSans-110"/>
      <use x="368.115234" xlink:href="#DejaVuSans-95"/>
      <use x="418.115234" xlink:href="#DejaVuSans-49"/>
     </g>
    </g>
   </g>
  </g>
  <g id="axes_3">
   <g id="patch_14">
    <path d="M 144 405.062069 
L 1036.8 405.062069 
L 1036.8 311.337931 
L 144 311.337931 
z
" style="fill:#ffffff;"/>
   </g>
   <g id="matplotlib.axis_5">
    <g id="xtick_41">
     <g id="line2d_52">
      <g>
       <use style="stroke:#000000;stroke-width:0.8;" x="144" xlink:href="#m9d8e6acca3" y="405.062069"/>
      </g>
     </g>
    </g>
    <g id="xtick_42">
     <g id="line2d_53">
      <g>
       <use style="stroke:#000000;stroke-width:0.8;" x="325.586441" xlink:href="#m9d8e6acca3" y="405.062069"/>
      </g>
     </g>
    </g>
    <g id="xtick_43">
     <g id="line2d_54">
      <g>
       <use style="stroke:#000000;stroke-width:0.8;" x="507.172881" xlink:href="#m9d8e6acca3" y="405.062069"/>
      </g>
     </g>
    </g>
    <g id="xtick_44">
     <g id="line2d_55">
      <g>
       <use style="stroke:#000000;stroke-width:0.8;" x="688.759322" xlink:href="#m9d8e6acca3" y="405.062069"/>
      </g>
     </g>
    </g>
    <g id="xtick_45">
     <g id="line2d_56">
      <g>
       <use style="stroke:#000000;stroke-width:0.8;" x="870.345763" xlink:href="#m9d8e6acca3" y="405.062069"/>
      </g>
     </g>
    </g>
    <g id="xtick_46">
     <g id="line2d_57">
      <g>
       <use style="stroke:#000000;stroke-width:0.6;" x="189.39661" xlink:href="#m0906959b44" y="405.062069"/>
      </g>
     </g>
    </g>
    <g id="xtick_47">
     <g id="line2d_58">
      <g>
       <use style="stroke:#000000;stroke-width:0.6;" x="234.79322" xlink:href="#m0906959b44" y="405.062069"/>
      </g>
     </g>
    </g>
    <g id="xtick_48">
     <g id="line2d_59">
      <g>
       <use style="stroke:#000000;stroke-width:0.6;" x="280.189831" xlink:href="#m0906959b44" y="405.062069"/>
      </g>
     </g>
    </g>
    <g id="xtick_49">
     <g id="line2d_60">
      <g>
       <use style="stroke:#000000;stroke-width:0.6;" x="370.983051" xlink:href="#m0906959b44" y="405.062069"/>
      </g>
     </g>
    </g>
    <g id="xtick_50">
     <g id="line2d_61">
      <g>
       <use style="stroke:#000000;stroke-width:0.6;" x="416.379661" xlink:href="#m0906959b44" y="405.062069"/>
      </g>
     </g>
    </g>
    <g id="xtick_51">
     <g id="line2d_62">
      <g>
       <use style="stroke:#000000;stroke-width:0.6;" x="461.776271" xlink:href="#m0906959b44" y="405.062069"/>
      </g>
     </g>
    </g>
    <g id="xtick_52">
     <g id="line2d_63">
      <g>
       <use style="stroke:#000000;stroke-width:0.6;" x="552.569492" xlink:href="#m0906959b44" y="405.062069"/>
      </g>
     </g>
    </g>
    <g id="xtick_53">
     <g id="line2d_64">
      <g>
       <use style="stroke:#000000;stroke-width:0.6;" x="597.966102" xlink:href="#m0906959b44" y="405.062069"/>
      </g>
     </g>
    </g>
    <g id="xtick_54">
     <g id="line2d_65">
      <g>
       <use style="stroke:#000000;stroke-width:0.6;" x="643.362712" xlink:href="#m0906959b44" y="405.062069"/>
      </g>
     </g>
    </g>
    <g id="xtick_55">
     <g id="line2d_66">
      <g>
       <use style="stroke:#000000;stroke-width:0.6;" x="734.155932" xlink:href="#m0906959b44" y="405.062069"/>
      </g>
     </g>
    </g>
    <g id="xtick_56">
     <g id="line2d_67">
      <g>
       <use style="stroke:#000000;stroke-width:0.6;" x="779.552542" xlink:href="#m0906959b44" y="405.062069"/>
      </g>
     </g>
    </g>
    <g id="xtick_57">
     <g id="line2d_68">
      <g>
       <use style="stroke:#000000;stroke-width:0.6;" x="824.949153" xlink:href="#m0906959b44" y="405.062069"/>
      </g>
     </g>
    </g>
    <g id="xtick_58">
     <g id="line2d_69">
      <g>
       <use style="stroke:#000000;stroke-width:0.6;" x="915.742373" xlink:href="#m0906959b44" y="405.062069"/>
      </g>
     </g>
    </g>
    <g id="xtick_59">
     <g id="line2d_70">
      <g>
       <use style="stroke:#000000;stroke-width:0.6;" x="961.138983" xlink:href="#m0906959b44" y="405.062069"/>
      </g>
     </g>
    </g>
    <g id="xtick_60">
     <g id="line2d_71">
      <g>
       <use style="stroke:#000000;stroke-width:0.6;" x="1006.535593" xlink:href="#m0906959b44" y="405.062069"/>
      </g>
     </g>
    </g>
   </g>
   <g id="matplotlib.axis_6">
    <g id="ytick_6">
     <g id="line2d_72">
      <g>
       <use style="stroke:#000000;stroke-width:0.8;" x="144" xlink:href="#m1ab4dac23e" y="374.785465"/>
      </g>
     </g>
     <g id="text_8">
      <!-- 100 -->
      <g transform="translate(117.9125 378.584684)scale(0.1 -0.1)">
       <use xlink:href="#DejaVuSans-49"/>
       <use x="63.623047" xlink:href="#DejaVuSans-48"/>
       <use x="127.246094" xlink:href="#DejaVuSans-48"/>
      </g>
     </g>
    </g>
    <g id="ytick_7">
     <g id="line2d_73">
      <g>
       <use style="stroke:#000000;stroke-width:0.8;" x="144" xlink:href="#m1ab4dac23e" y="342.264945"/>
      </g>
     </g>
     <g id="text_9">
      <!-- 150 -->
      <g transform="translate(117.9125 346.064164)scale(0.1 -0.1)">
       <use xlink:href="#DejaVuSans-49"/>
       <use x="63.623047" xlink:href="#DejaVuSans-53"/>
       <use x="127.246094" xlink:href="#DejaVuSans-48"/>
      </g>
     </g>
    </g>
   </g>
   <g id="line2d_74">
    <path clip-path="url(#paa2c941a79)" d="M 144 365.67972 
L 159.132203 338.362483 
L 174.264407 338.362483 
L 189.39661 374.135055 
L 204.528814 335.110431 
L 219.661017 370.232592 
L 234.79322 335.760841 
L 249.925424 334.460021 
L 265.057627 400.801881 
L 280.189831 365.029309 
L 295.322034 321.451813 
L 310.454237 374.785465 
L 325.586441 394.297777 
L 340.718644 374.785465 
L 355.850847 385.842442 
L 370.983051 392.996956 
L 386.115254 365.67972 
L 401.247458 357.224384 
L 416.379661 372.834234 
L 431.511864 388.444083 
L 446.644068 386.492852 
L 461.776271 333.80961 
L 476.908475 344.866587 
L 492.040678 329.256737 
L 507.172881 374.785465 
L 522.305085 348.769049 
L 537.437288 318.850171 
L 552.569492 352.021101 
L 567.701695 394.297777 
L 582.833898 389.744904 
L 597.966102 320.801402 
L 613.098305 381.289569 
L 628.230508 320.150992 
L 643.362712 388.444083 
L 658.494915 375.435875 
L 673.627119 366.33013 
L 688.759322 366.98054 
L 703.891525 325.354275 
L 719.023729 389.744904 
L 734.155932 377.387107 
L 749.288136 316.89894 
L 764.420339 379.988748 
L 779.552542 360.476436 
L 794.684746 353.321922 
L 809.816949 390.395315 
L 824.949153 363.728488 
L 840.081356 397.549829 
L 855.213559 344.216177 
L 870.345763 344.216177 
L 885.477966 372.183823 
L 900.610169 383.2408 
L 915.742373 339.012893 
L 930.874576 339.012893 
L 946.00678 376.086286 
L 961.138983 349.41946 
L 976.271186 372.183823 
L 991.40339 348.769049 
L 1006.535593 381.939979 
L 1021.667797 400.15147 
L 1036.8 315.598119 
" style="fill:none;stroke:#2ca02c;stroke-linecap:square;stroke-width:1.5;"/>
   </g>
   <g id="patch_15">
    <path d="M 144 405.062069 
L 144 311.337931 
" style="fill:none;stroke:#000000;stroke-linecap:square;stroke-linejoin:miter;stroke-width:0.8;"/>
   </g>
   <g id="patch_16">
    <path d="M 1036.8 405.062069 
L 1036.8 311.337931 
" style="fill:none;stroke:#000000;stroke-linecap:square;stroke-linejoin:miter;stroke-width:0.8;"/>
   </g>
   <g id="patch_17">
    <path d="M 144 405.062069 
L 1036.8 405.062069 
" style="fill:none;stroke:#000000;stroke-linecap:square;stroke-linejoin:miter;stroke-width:0.8;"/>
   </g>
   <g id="patch_18">
    <path d="M 144 311.337931 
L 1036.8 311.337931 
" style="fill:none;stroke:#000000;stroke-linecap:square;stroke-linejoin:miter;stroke-width:0.8;"/>
   </g>
   <g id="legend_3">
    <g id="patch_19">
     <path d="M 949.626562 334.294181 
L 1029.8 334.294181 
Q 1031.8 334.294181 1031.8 332.294181 
L 1031.8 318.337931 
Q 1031.8 316.337931 1029.8 316.337931 
L 949.626562 316.337931 
Q 947.626562 316.337931 947.626562 318.337931 
L 947.626562 332.294181 
Q 947.626562 334.294181 949.626562 334.294181 
z
" style="fill:#ffffff;opacity:0.8;stroke:#cccccc;stroke-linejoin:miter;"/>
    </g>
    <g id="line2d_75">
     <path d="M 951.626562 324.436369 
L 971.626562 324.436369 
" style="fill:none;stroke:#2ca02c;stroke-linecap:square;stroke-width:1.5;"/>
    </g>
    <g id="line2d_76"/>
    <g id="text_10">
     <!-- column_2 -->
     <g transform="translate(979.626562 327.936369)scale(0.1 -0.1)">
      <use xlink:href="#DejaVuSans-99"/>
      <use x="54.980469" xlink:href="#DejaVuSans-111"/>
      <use x="116.162109" xlink:href="#DejaVuSans-108"/>
      <use x="143.945312" xlink:href="#DejaVuSans-117"/>
      <use x="207.324219" xlink:href="#DejaVuSans-109"/>
      <use x="304.736328" xlink:href="#DejaVuSans-110"/>
      <use x="368.115234" xlink:href="#DejaVuSans-95"/>
      <use x="418.115234" xlink:href="#DejaVuSans-50"/>
     </g>
    </g>
   </g>
  </g>
  <g id="axes_4">
   <g id="patch_20">
    <path d="M 144 517.531034 
L 1036.8 517.531034 
L 1036.8 423.806897 
L 144 423.806897 
z
" style="fill:#ffffff;"/>
   </g>
   <g id="matplotlib.axis_7">
    <g id="xtick_61">
     <g id="line2d_77">
      <g>
       <use style="stroke:#000000;stroke-width:0.8;" x="144" xlink:href="#m9d8e6acca3" y="517.531034"/>
      </g>
     </g>
    </g>
    <g id="xtick_62">
     <g id="line2d_78">
      <g>
       <use style="stroke:#000000;stroke-width:0.8;" x="325.586441" xlink:href="#m9d8e6acca3" y="517.531034"/>
      </g>
     </g>
    </g>
    <g id="xtick_63">
     <g id="line2d_79">
      <g>
       <use style="stroke:#000000;stroke-width:0.8;" x="507.172881" xlink:href="#m9d8e6acca3" y="517.531034"/>
      </g>
     </g>
    </g>
    <g id="xtick_64">
     <g id="line2d_80">
      <g>
       <use style="stroke:#000000;stroke-width:0.8;" x="688.759322" xlink:href="#m9d8e6acca3" y="517.531034"/>
      </g>
     </g>
    </g>
    <g id="xtick_65">
     <g id="line2d_81">
      <g>
       <use style="stroke:#000000;stroke-width:0.8;" x="870.345763" xlink:href="#m9d8e6acca3" y="517.531034"/>
      </g>
     </g>
    </g>
    <g id="xtick_66">
     <g id="line2d_82">
      <g>
       <use style="stroke:#000000;stroke-width:0.6;" x="189.39661" xlink:href="#m0906959b44" y="517.531034"/>
      </g>
     </g>
    </g>
    <g id="xtick_67">
     <g id="line2d_83">
      <g>
       <use style="stroke:#000000;stroke-width:0.6;" x="234.79322" xlink:href="#m0906959b44" y="517.531034"/>
      </g>
     </g>
    </g>
    <g id="xtick_68">
     <g id="line2d_84">
      <g>
       <use style="stroke:#000000;stroke-width:0.6;" x="280.189831" xlink:href="#m0906959b44" y="517.531034"/>
      </g>
     </g>
    </g>
    <g id="xtick_69">
     <g id="line2d_85">
      <g>
       <use style="stroke:#000000;stroke-width:0.6;" x="370.983051" xlink:href="#m0906959b44" y="517.531034"/>
      </g>
     </g>
    </g>
    <g id="xtick_70">
     <g id="line2d_86">
      <g>
       <use style="stroke:#000000;stroke-width:0.6;" x="416.379661" xlink:href="#m0906959b44" y="517.531034"/>
      </g>
     </g>
    </g>
    <g id="xtick_71">
     <g id="line2d_87">
      <g>
       <use style="stroke:#000000;stroke-width:0.6;" x="461.776271" xlink:href="#m0906959b44" y="517.531034"/>
      </g>
     </g>
    </g>
    <g id="xtick_72">
     <g id="line2d_88">
      <g>
       <use style="stroke:#000000;stroke-width:0.6;" x="552.569492" xlink:href="#m0906959b44" y="517.531034"/>
      </g>
     </g>
    </g>
    <g id="xtick_73">
     <g id="line2d_89">
      <g>
       <use style="stroke:#000000;stroke-width:0.6;" x="597.966102" xlink:href="#m0906959b44" y="517.531034"/>
      </g>
     </g>
    </g>
    <g id="xtick_74">
     <g id="line2d_90">
      <g>
       <use style="stroke:#000000;stroke-width:0.6;" x="643.362712" xlink:href="#m0906959b44" y="517.531034"/>
      </g>
     </g>
    </g>
    <g id="xtick_75">
     <g id="line2d_91">
      <g>
       <use style="stroke:#000000;stroke-width:0.6;" x="734.155932" xlink:href="#m0906959b44" y="517.531034"/>
      </g>
     </g>
    </g>
    <g id="xtick_76">
     <g id="line2d_92">
      <g>
       <use style="stroke:#000000;stroke-width:0.6;" x="779.552542" xlink:href="#m0906959b44" y="517.531034"/>
      </g>
     </g>
    </g>
    <g id="xtick_77">
     <g id="line2d_93">
      <g>
       <use style="stroke:#000000;stroke-width:0.6;" x="824.949153" xlink:href="#m0906959b44" y="517.531034"/>
      </g>
     </g>
    </g>
    <g id="xtick_78">
     <g id="line2d_94">
      <g>
       <use style="stroke:#000000;stroke-width:0.6;" x="915.742373" xlink:href="#m0906959b44" y="517.531034"/>
      </g>
     </g>
    </g>
    <g id="xtick_79">
     <g id="line2d_95">
      <g>
       <use style="stroke:#000000;stroke-width:0.6;" x="961.138983" xlink:href="#m0906959b44" y="517.531034"/>
      </g>
     </g>
    </g>
    <g id="xtick_80">
     <g id="line2d_96">
      <g>
       <use style="stroke:#000000;stroke-width:0.6;" x="1006.535593" xlink:href="#m0906959b44" y="517.531034"/>
      </g>
     </g>
    </g>
   </g>
   <g id="matplotlib.axis_8">
    <g id="ytick_8">
     <g id="line2d_97">
      <g>
       <use style="stroke:#000000;stroke-width:0.8;" x="144" xlink:href="#m1ab4dac23e" y="489.015761"/>
      </g>
     </g>
     <g id="text_11">
      <!-- 100 -->
      <g transform="translate(117.9125 492.81498)scale(0.1 -0.1)">
       <use xlink:href="#DejaVuSans-49"/>
       <use x="63.623047" xlink:href="#DejaVuSans-48"/>
       <use x="127.246094" xlink:href="#DejaVuSans-48"/>
      </g>
     </g>
    </g>
    <g id="ytick_9">
     <g id="line2d_98">
      <g>
       <use style="stroke:#000000;stroke-width:0.8;" x="144" xlink:href="#m1ab4dac23e" y="457.919498"/>
      </g>
     </g>
     <g id="text_12">
      <!-- 150 -->
      <g transform="translate(117.9125 461.718716)scale(0.1 -0.1)">
       <use xlink:href="#DejaVuSans-49"/>
       <use x="63.623047" xlink:href="#DejaVuSans-53"/>
       <use x="127.246094" xlink:href="#DejaVuSans-48"/>
      </g>
     </g>
    </g>
    <g id="ytick_10">
     <g id="line2d_99">
      <g>
       <use style="stroke:#000000;stroke-width:0.8;" x="144" xlink:href="#m1ab4dac23e" y="426.823234"/>
      </g>
     </g>
     <g id="text_13">
      <!-- 200 -->
      <g transform="translate(117.9125 430.622453)scale(0.1 -0.1)">
       <use xlink:href="#DejaVuSans-50"/>
       <use x="63.623047" xlink:href="#DejaVuSans-48"/>
       <use x="127.246094" xlink:href="#DejaVuSans-48"/>
      </g>
     </g>
    </g>
   </g>
   <g id="line2d_100">
    <path clip-path="url(#p3073838cc7)" d="M 144 504.563893 
L 159.132203 495.235014 
L 174.264407 504.563893 
L 189.39661 504.563893 
L 204.528814 504.563893 
L 219.661017 513.270846 
L 234.79322 457.919498 
L 249.925424 448.590618 
L 265.057627 503.320042 
L 280.189831 460.407199 
L 295.322034 444.237142 
L 310.454237 455.431796 
L 325.586441 484.040359 
L 340.718644 444.237142 
L 355.850847 488.393836 
L 370.983051 492.747313 
L 386.115254 438.017889 
L 401.247458 513.270846 
L 416.379661 463.516825 
L 431.511864 466.004526 
L 446.644068 432.420562 
L 461.776271 480.930732 
L 476.908475 467.248377 
L 492.040678 489.637686 
L 507.172881 503.320042 
L 522.305085 461.651049 
L 537.437288 468.492227 
L 552.569492 502.698117 
L 567.701695 451.700245 
L 582.833898 449.834469 
L 597.966102 442.993291 
L 613.098305 435.530188 
L 628.230508 499.58849 
L 643.362712 490.259611 
L 658.494915 502.698117 
L 673.627119 441.127515 
L 688.759322 458.541423 
L 703.891525 472.845704 
L 719.023729 498.966565 
L 734.155932 495.235014 
L 749.288136 484.040359 
L 764.420339 442.993291 
L 779.552542 477.199181 
L 794.684746 429.310935 
L 809.816949 476.577256 
L 824.949153 477.821106 
L 840.081356 428.067085 
L 855.213559 449.212544 
L 870.345763 510.16122 
L 885.477966 449.834469 
L 900.610169 507.673519 
L 915.742373 459.785273 
L 930.874576 493.369238 
L 946.00678 442.371366 
L 961.138983 448.590618 
L 976.271186 468.492227 
L 991.40339 508.295444 
L 1006.535593 466.626451 
L 1021.667797 510.783145 
L 1036.8 459.785273 
" style="fill:none;stroke:#d62728;stroke-linecap:square;stroke-width:1.5;"/>
   </g>
   <g id="patch_21">
    <path d="M 144 517.531034 
L 144 423.806897 
" style="fill:none;stroke:#000000;stroke-linecap:square;stroke-linejoin:miter;stroke-width:0.8;"/>
   </g>
   <g id="patch_22">
    <path d="M 1036.8 517.531034 
L 1036.8 423.806897 
" style="fill:none;stroke:#000000;stroke-linecap:square;stroke-linejoin:miter;stroke-width:0.8;"/>
   </g>
   <g id="patch_23">
    <path d="M 144 517.531034 
L 1036.8 517.531034 
" style="fill:none;stroke:#000000;stroke-linecap:square;stroke-linejoin:miter;stroke-width:0.8;"/>
   </g>
   <g id="patch_24">
    <path d="M 144 423.806897 
L 1036.8 423.806897 
" style="fill:none;stroke:#000000;stroke-linecap:square;stroke-linejoin:miter;stroke-width:0.8;"/>
   </g>
   <g id="legend_4">
    <g id="patch_25">
     <path d="M 151 446.763147 
L 231.173438 446.763147 
Q 233.173438 446.763147 233.173438 444.763147 
L 233.173438 430.806897 
Q 233.173438 428.806897 231.173438 428.806897 
L 151 428.806897 
Q 149 428.806897 149 430.806897 
L 149 444.763147 
Q 149 446.763147 151 446.763147 
z
" style="fill:#ffffff;opacity:0.8;stroke:#cccccc;stroke-linejoin:miter;"/>
    </g>
    <g id="line2d_101">
     <path d="M 153 436.905334 
L 173 436.905334 
" style="fill:none;stroke:#d62728;stroke-linecap:square;stroke-width:1.5;"/>
    </g>
    <g id="line2d_102"/>
    <g id="text_14">
     <!-- column_3 -->
     <defs>
      <path d="M 40.578125 39.3125 
Q 47.65625 37.796875 51.625 33 
Q 55.609375 28.21875 55.609375 21.1875 
Q 55.609375 10.40625 48.1875 4.484375 
Q 40.765625 -1.421875 27.09375 -1.421875 
Q 22.515625 -1.421875 17.65625 -0.515625 
Q 12.796875 0.390625 7.625 2.203125 
L 7.625 11.71875 
Q 11.71875 9.328125 16.59375 8.109375 
Q 21.484375 6.890625 26.8125 6.890625 
Q 36.078125 6.890625 40.9375 10.546875 
Q 45.796875 14.203125 45.796875 21.1875 
Q 45.796875 27.640625 41.28125 31.265625 
Q 36.765625 34.90625 28.71875 34.90625 
L 20.21875 34.90625 
L 20.21875 43.015625 
L 29.109375 43.015625 
Q 36.375 43.015625 40.234375 45.921875 
Q 44.09375 48.828125 44.09375 54.296875 
Q 44.09375 59.90625 40.109375 62.90625 
Q 36.140625 65.921875 28.71875 65.921875 
Q 24.65625 65.921875 20.015625 65.03125 
Q 15.375 64.15625 9.8125 62.3125 
L 9.8125 71.09375 
Q 15.4375 72.65625 20.34375 73.4375 
Q 25.25 74.21875 29.59375 74.21875 
Q 40.828125 74.21875 47.359375 69.109375 
Q 53.90625 64.015625 53.90625 55.328125 
Q 53.90625 49.265625 50.4375 45.09375 
Q 46.96875 40.921875 40.578125 39.3125 
z
" id="DejaVuSans-51"/>
     </defs>
     <g transform="translate(181 440.405334)scale(0.1 -0.1)">
      <use xlink:href="#DejaVuSans-99"/>
      <use x="54.980469" xlink:href="#DejaVuSans-111"/>
      <use x="116.162109" xlink:href="#DejaVuSans-108"/>
      <use x="143.945312" xlink:href="#DejaVuSans-117"/>
      <use x="207.324219" xlink:href="#DejaVuSans-109"/>
      <use x="304.736328" xlink:href="#DejaVuSans-110"/>
      <use x="368.115234" xlink:href="#DejaVuSans-95"/>
      <use x="418.115234" xlink:href="#DejaVuSans-51"/>
     </g>
    </g>
   </g>
  </g>
  <g id="axes_5">
   <g id="patch_26">
    <path d="M 144 630 
L 1036.8 630 
L 1036.8 536.275862 
L 144 536.275862 
z
" style="fill:#ffffff;"/>
   </g>
   <g id="matplotlib.axis_9">
    <g id="xtick_81">
     <g id="line2d_103">
      <g>
       <use style="stroke:#000000;stroke-width:0.8;" x="144" xlink:href="#m9d8e6acca3" y="630"/>
      </g>
     </g>
     <g id="text_15">
      <!-- 2016 -->
      <defs>
       <path d="M 33.015625 40.375 
Q 26.375 40.375 22.484375 35.828125 
Q 18.609375 31.296875 18.609375 23.390625 
Q 18.609375 15.53125 22.484375 10.953125 
Q 26.375 6.390625 33.015625 6.390625 
Q 39.65625 6.390625 43.53125 10.953125 
Q 47.40625 15.53125 47.40625 23.390625 
Q 47.40625 31.296875 43.53125 35.828125 
Q 39.65625 40.375 33.015625 40.375 
z
M 52.59375 71.296875 
L 52.59375 62.3125 
Q 48.875 64.0625 45.09375 64.984375 
Q 41.3125 65.921875 37.59375 65.921875 
Q 27.828125 65.921875 22.671875 59.328125 
Q 17.53125 52.734375 16.796875 39.40625 
Q 19.671875 43.65625 24.015625 45.921875 
Q 28.375 48.1875 33.59375 48.1875 
Q 44.578125 48.1875 50.953125 41.515625 
Q 57.328125 34.859375 57.328125 23.390625 
Q 57.328125 12.15625 50.6875 5.359375 
Q 44.046875 -1.421875 33.015625 -1.421875 
Q 20.359375 -1.421875 13.671875 8.265625 
Q 6.984375 17.96875 6.984375 36.375 
Q 6.984375 53.65625 15.1875 63.9375 
Q 23.390625 74.21875 37.203125 74.21875 
Q 40.921875 74.21875 44.703125 73.484375 
Q 48.484375 72.75 52.59375 71.296875 
z
" id="DejaVuSans-54"/>
      </defs>
      <g transform="translate(131.275 644.598438)scale(0.1 -0.1)">
       <use xlink:href="#DejaVuSans-50"/>
       <use x="63.623047" xlink:href="#DejaVuSans-48"/>
       <use x="127.246094" xlink:href="#DejaVuSans-49"/>
       <use x="190.869141" xlink:href="#DejaVuSans-54"/>
      </g>
     </g>
    </g>
    <g id="xtick_82">
     <g id="line2d_104">
      <g>
       <use style="stroke:#000000;stroke-width:0.8;" x="325.586441" xlink:href="#m9d8e6acca3" y="630"/>
      </g>
     </g>
     <g id="text_16">
      <!-- 2017 -->
      <defs>
       <path d="M 8.203125 72.90625 
L 55.078125 72.90625 
L 55.078125 68.703125 
L 28.609375 0 
L 18.3125 0 
L 43.21875 64.59375 
L 8.203125 64.59375 
z
" id="DejaVuSans-55"/>
      </defs>
      <g transform="translate(312.861441 644.598438)scale(0.1 -0.1)">
       <use xlink:href="#DejaVuSans-50"/>
       <use x="63.623047" xlink:href="#DejaVuSans-48"/>
       <use x="127.246094" xlink:href="#DejaVuSans-49"/>
       <use x="190.869141" xlink:href="#DejaVuSans-55"/>
      </g>
     </g>
    </g>
    <g id="xtick_83">
     <g id="line2d_105">
      <g>
       <use style="stroke:#000000;stroke-width:0.8;" x="507.172881" xlink:href="#m9d8e6acca3" y="630"/>
      </g>
     </g>
     <g id="text_17">
      <!-- 2018 -->
      <defs>
       <path d="M 31.78125 34.625 
Q 24.75 34.625 20.71875 30.859375 
Q 16.703125 27.09375 16.703125 20.515625 
Q 16.703125 13.921875 20.71875 10.15625 
Q 24.75 6.390625 31.78125 6.390625 
Q 38.8125 6.390625 42.859375 10.171875 
Q 46.921875 13.96875 46.921875 20.515625 
Q 46.921875 27.09375 42.890625 30.859375 
Q 38.875 34.625 31.78125 34.625 
z
M 21.921875 38.8125 
Q 15.578125 40.375 12.03125 44.71875 
Q 8.5 49.078125 8.5 55.328125 
Q 8.5 64.0625 14.71875 69.140625 
Q 20.953125 74.21875 31.78125 74.21875 
Q 42.671875 74.21875 48.875 69.140625 
Q 55.078125 64.0625 55.078125 55.328125 
Q 55.078125 49.078125 51.53125 44.71875 
Q 48 40.375 41.703125 38.8125 
Q 48.828125 37.15625 52.796875 32.3125 
Q 56.78125 27.484375 56.78125 20.515625 
Q 56.78125 9.90625 50.3125 4.234375 
Q 43.84375 -1.421875 31.78125 -1.421875 
Q 19.734375 -1.421875 13.25 4.234375 
Q 6.78125 9.90625 6.78125 20.515625 
Q 6.78125 27.484375 10.78125 32.3125 
Q 14.796875 37.15625 21.921875 38.8125 
z
M 18.3125 54.390625 
Q 18.3125 48.734375 21.84375 45.5625 
Q 25.390625 42.390625 31.78125 42.390625 
Q 38.140625 42.390625 41.71875 45.5625 
Q 45.3125 48.734375 45.3125 54.390625 
Q 45.3125 60.0625 41.71875 63.234375 
Q 38.140625 66.40625 31.78125 66.40625 
Q 25.390625 66.40625 21.84375 63.234375 
Q 18.3125 60.0625 18.3125 54.390625 
z
" id="DejaVuSans-56"/>
      </defs>
      <g transform="translate(494.447881 644.598438)scale(0.1 -0.1)">
       <use xlink:href="#DejaVuSans-50"/>
       <use x="63.623047" xlink:href="#DejaVuSans-48"/>
       <use x="127.246094" xlink:href="#DejaVuSans-49"/>
       <use x="190.869141" xlink:href="#DejaVuSans-56"/>
      </g>
     </g>
    </g>
    <g id="xtick_84">
     <g id="line2d_106">
      <g>
       <use style="stroke:#000000;stroke-width:0.8;" x="688.759322" xlink:href="#m9d8e6acca3" y="630"/>
      </g>
     </g>
     <g id="text_18">
      <!-- 2019 -->
      <defs>
       <path d="M 10.984375 1.515625 
L 10.984375 10.5 
Q 14.703125 8.734375 18.5 7.8125 
Q 22.3125 6.890625 25.984375 6.890625 
Q 35.75 6.890625 40.890625 13.453125 
Q 46.046875 20.015625 46.78125 33.40625 
Q 43.953125 29.203125 39.59375 26.953125 
Q 35.25 24.703125 29.984375 24.703125 
Q 19.046875 24.703125 12.671875 31.3125 
Q 6.296875 37.9375 6.296875 49.421875 
Q 6.296875 60.640625 12.9375 67.421875 
Q 19.578125 74.21875 30.609375 74.21875 
Q 43.265625 74.21875 49.921875 64.515625 
Q 56.59375 54.828125 56.59375 36.375 
Q 56.59375 19.140625 48.40625 8.859375 
Q 40.234375 -1.421875 26.421875 -1.421875 
Q 22.703125 -1.421875 18.890625 -0.6875 
Q 15.09375 0.046875 10.984375 1.515625 
z
M 30.609375 32.421875 
Q 37.25 32.421875 41.125 36.953125 
Q 45.015625 41.5 45.015625 49.421875 
Q 45.015625 57.28125 41.125 61.84375 
Q 37.25 66.40625 30.609375 66.40625 
Q 23.96875 66.40625 20.09375 61.84375 
Q 16.21875 57.28125 16.21875 49.421875 
Q 16.21875 41.5 20.09375 36.953125 
Q 23.96875 32.421875 30.609375 32.421875 
z
" id="DejaVuSans-57"/>
      </defs>
      <g transform="translate(676.034322 644.598438)scale(0.1 -0.1)">
       <use xlink:href="#DejaVuSans-50"/>
       <use x="63.623047" xlink:href="#DejaVuSans-48"/>
       <use x="127.246094" xlink:href="#DejaVuSans-49"/>
       <use x="190.869141" xlink:href="#DejaVuSans-57"/>
      </g>
     </g>
    </g>
    <g id="xtick_85">
     <g id="line2d_107">
      <g>
       <use style="stroke:#000000;stroke-width:0.8;" x="870.345763" xlink:href="#m9d8e6acca3" y="630"/>
      </g>
     </g>
     <g id="text_19">
      <!-- 2020 -->
      <g transform="translate(857.620763 644.598438)scale(0.1 -0.1)">
       <use xlink:href="#DejaVuSans-50"/>
       <use x="63.623047" xlink:href="#DejaVuSans-48"/>
       <use x="127.246094" xlink:href="#DejaVuSans-50"/>
       <use x="190.869141" xlink:href="#DejaVuSans-48"/>
      </g>
     </g>
    </g>
    <g id="xtick_86">
     <g id="line2d_108">
      <g>
       <use style="stroke:#000000;stroke-width:0.6;" x="189.39661" xlink:href="#m0906959b44" y="630"/>
      </g>
     </g>
    </g>
    <g id="xtick_87">
     <g id="line2d_109">
      <g>
       <use style="stroke:#000000;stroke-width:0.6;" x="234.79322" xlink:href="#m0906959b44" y="630"/>
      </g>
     </g>
    </g>
    <g id="xtick_88">
     <g id="line2d_110">
      <g>
       <use style="stroke:#000000;stroke-width:0.6;" x="280.189831" xlink:href="#m0906959b44" y="630"/>
      </g>
     </g>
    </g>
    <g id="xtick_89">
     <g id="line2d_111">
      <g>
       <use style="stroke:#000000;stroke-width:0.6;" x="370.983051" xlink:href="#m0906959b44" y="630"/>
      </g>
     </g>
    </g>
    <g id="xtick_90">
     <g id="line2d_112">
      <g>
       <use style="stroke:#000000;stroke-width:0.6;" x="416.379661" xlink:href="#m0906959b44" y="630"/>
      </g>
     </g>
    </g>
    <g id="xtick_91">
     <g id="line2d_113">
      <g>
       <use style="stroke:#000000;stroke-width:0.6;" x="461.776271" xlink:href="#m0906959b44" y="630"/>
      </g>
     </g>
    </g>
    <g id="xtick_92">
     <g id="line2d_114">
      <g>
       <use style="stroke:#000000;stroke-width:0.6;" x="552.569492" xlink:href="#m0906959b44" y="630"/>
      </g>
     </g>
    </g>
    <g id="xtick_93">
     <g id="line2d_115">
      <g>
       <use style="stroke:#000000;stroke-width:0.6;" x="597.966102" xlink:href="#m0906959b44" y="630"/>
      </g>
     </g>
    </g>
    <g id="xtick_94">
     <g id="line2d_116">
      <g>
       <use style="stroke:#000000;stroke-width:0.6;" x="643.362712" xlink:href="#m0906959b44" y="630"/>
      </g>
     </g>
    </g>
    <g id="xtick_95">
     <g id="line2d_117">
      <g>
       <use style="stroke:#000000;stroke-width:0.6;" x="734.155932" xlink:href="#m0906959b44" y="630"/>
      </g>
     </g>
    </g>
    <g id="xtick_96">
     <g id="line2d_118">
      <g>
       <use style="stroke:#000000;stroke-width:0.6;" x="779.552542" xlink:href="#m0906959b44" y="630"/>
      </g>
     </g>
    </g>
    <g id="xtick_97">
     <g id="line2d_119">
      <g>
       <use style="stroke:#000000;stroke-width:0.6;" x="824.949153" xlink:href="#m0906959b44" y="630"/>
      </g>
     </g>
    </g>
    <g id="xtick_98">
     <g id="line2d_120">
      <g>
       <use style="stroke:#000000;stroke-width:0.6;" x="915.742373" xlink:href="#m0906959b44" y="630"/>
      </g>
     </g>
    </g>
    <g id="xtick_99">
     <g id="line2d_121">
      <g>
       <use style="stroke:#000000;stroke-width:0.6;" x="961.138983" xlink:href="#m0906959b44" y="630"/>
      </g>
     </g>
    </g>
    <g id="xtick_100">
     <g id="line2d_122">
      <g>
       <use style="stroke:#000000;stroke-width:0.6;" x="1006.535593" xlink:href="#m0906959b44" y="630"/>
      </g>
     </g>
    </g>
    <g id="text_20">
     <!-- Date -->
     <defs>
      <path d="M 19.671875 64.796875 
L 19.671875 8.109375 
L 31.59375 8.109375 
Q 46.6875 8.109375 53.6875 14.9375 
Q 60.6875 21.78125 60.6875 36.53125 
Q 60.6875 51.171875 53.6875 57.984375 
Q 46.6875 64.796875 31.59375 64.796875 
z
M 9.8125 72.90625 
L 30.078125 72.90625 
Q 51.265625 72.90625 61.171875 64.09375 
Q 71.09375 55.28125 71.09375 36.53125 
Q 71.09375 17.671875 61.125 8.828125 
Q 51.171875 0 30.078125 0 
L 9.8125 0 
z
" id="DejaVuSans-68"/>
      <path d="M 34.28125 27.484375 
Q 23.390625 27.484375 19.1875 25 
Q 14.984375 22.515625 14.984375 16.5 
Q 14.984375 11.71875 18.140625 8.90625 
Q 21.296875 6.109375 26.703125 6.109375 
Q 34.1875 6.109375 38.703125 11.40625 
Q 43.21875 16.703125 43.21875 25.484375 
L 43.21875 27.484375 
z
M 52.203125 31.203125 
L 52.203125 0 
L 43.21875 0 
L 43.21875 8.296875 
Q 40.140625 3.328125 35.546875 0.953125 
Q 30.953125 -1.421875 24.3125 -1.421875 
Q 15.921875 -1.421875 10.953125 3.296875 
Q 6 8.015625 6 15.921875 
Q 6 25.140625 12.171875 29.828125 
Q 18.359375 34.515625 30.609375 34.515625 
L 43.21875 34.515625 
L 43.21875 35.40625 
Q 43.21875 41.609375 39.140625 45 
Q 35.0625 48.390625 27.6875 48.390625 
Q 23 48.390625 18.546875 47.265625 
Q 14.109375 46.140625 10.015625 43.890625 
L 10.015625 52.203125 
Q 14.9375 54.109375 19.578125 55.046875 
Q 24.21875 56 28.609375 56 
Q 40.484375 56 46.34375 49.84375 
Q 52.203125 43.703125 52.203125 31.203125 
z
" id="DejaVuSans-97"/>
      <path d="M 18.3125 70.21875 
L 18.3125 54.6875 
L 36.8125 54.6875 
L 36.8125 47.703125 
L 18.3125 47.703125 
L 18.3125 18.015625 
Q 18.3125 11.328125 20.140625 9.421875 
Q 21.96875 7.515625 27.59375 7.515625 
L 36.8125 7.515625 
L 36.8125 0 
L 27.59375 0 
Q 17.1875 0 13.234375 3.875 
Q 9.28125 7.765625 9.28125 18.015625 
L 9.28125 47.703125 
L 2.6875 47.703125 
L 2.6875 54.6875 
L 9.28125 54.6875 
L 9.28125 70.21875 
z
" id="DejaVuSans-116"/>
      <path d="M 56.203125 29.59375 
L 56.203125 25.203125 
L 14.890625 25.203125 
Q 15.484375 15.921875 20.484375 11.0625 
Q 25.484375 6.203125 34.421875 6.203125 
Q 39.59375 6.203125 44.453125 7.46875 
Q 49.3125 8.734375 54.109375 11.28125 
L 54.109375 2.78125 
Q 49.265625 0.734375 44.1875 -0.34375 
Q 39.109375 -1.421875 33.890625 -1.421875 
Q 20.796875 -1.421875 13.15625 6.1875 
Q 5.515625 13.8125 5.515625 26.8125 
Q 5.515625 40.234375 12.765625 48.109375 
Q 20.015625 56 32.328125 56 
Q 43.359375 56 49.78125 48.890625 
Q 56.203125 41.796875 56.203125 29.59375 
z
M 47.21875 32.234375 
Q 47.125 39.59375 43.09375 43.984375 
Q 39.0625 48.390625 32.421875 48.390625 
Q 24.90625 48.390625 20.390625 44.140625 
Q 15.875 39.890625 15.1875 32.171875 
z
" id="DejaVuSans-101"/>
     </defs>
     <g transform="translate(578.449219 658.276563)scale(0.1 -0.1)">
      <use xlink:href="#DejaVuSans-68"/>
      <use x="77.001953" xlink:href="#DejaVuSans-97"/>
      <use x="138.28125" xlink:href="#DejaVuSans-116"/>
      <use x="177.490234" xlink:href="#DejaVuSans-101"/>
     </g>
    </g>
   </g>
   <g id="matplotlib.axis_10">
    <g id="ytick_11">
     <g id="line2d_123">
      <g>
       <use style="stroke:#000000;stroke-width:0.8;" x="144" xlink:href="#m1ab4dac23e" y="600.941702"/>
      </g>
     </g>
     <g id="text_21">
      <!-- 100 -->
      <g transform="translate(117.9125 604.740921)scale(0.1 -0.1)">
       <use xlink:href="#DejaVuSans-49"/>
       <use x="63.623047" xlink:href="#DejaVuSans-48"/>
       <use x="127.246094" xlink:href="#DejaVuSans-48"/>
      </g>
     </g>
    </g>
    <g id="ytick_12">
     <g id="line2d_124">
      <g>
       <use style="stroke:#000000;stroke-width:0.8;" x="144" xlink:href="#m1ab4dac23e" y="569.149254"/>
      </g>
     </g>
     <g id="text_22">
      <!-- 150 -->
      <g transform="translate(117.9125 572.948472)scale(0.1 -0.1)">
       <use xlink:href="#DejaVuSans-49"/>
       <use x="63.623047" xlink:href="#DejaVuSans-53"/>
       <use x="127.246094" xlink:href="#DejaVuSans-48"/>
      </g>
     </g>
    </g>
    <g id="ytick_13">
     <g id="line2d_125">
      <g>
       <use style="stroke:#000000;stroke-width:0.8;" x="144" xlink:href="#m1ab4dac23e" y="537.356805"/>
      </g>
     </g>
     <g id="text_23">
      <!-- 200 -->
      <g transform="translate(117.9125 541.156024)scale(0.1 -0.1)">
       <use xlink:href="#DejaVuSans-50"/>
       <use x="63.623047" xlink:href="#DejaVuSans-48"/>
       <use x="127.246094" xlink:href="#DejaVuSans-48"/>
      </g>
     </g>
    </g>
   </g>
   <g id="line2d_126">
    <path clip-path="url(#pe82ac57467)" d="M 144 583.77378 
L 159.132203 590.768119 
L 174.264407 565.970009 
L 189.39661 555.796425 
L 204.528814 618.745473 
L 219.661017 610.479437 
L 234.79322 577.41529 
L 249.925424 585.045478 
L 265.057627 553.888878 
L 280.189831 601.577551 
L 295.322034 544.986993 
L 310.454237 611.751135 
L 325.586441 602.2134 
L 340.718644 565.33416 
L 355.850847 607.300192 
L 370.983051 593.947363 
L 386.115254 541.171899 
L 401.247458 625.739812 
L 416.379661 541.171899 
L 431.511864 558.339821 
L 446.644068 557.703972 
L 461.776271 618.109624 
L 476.908475 553.25303 
L 492.040678 562.154915 
L 507.172881 594.583212 
L 522.305085 614.930379 
L 537.437288 606.028494 
L 552.569492 567.877556 
L 567.701695 551.981332 
L 582.833898 556.432274 
L 597.966102 602.2134 
L 613.098305 593.947363 
L 628.230508 565.970009 
L 643.362712 589.496421 
L 658.494915 585.681327 
L 673.627119 611.751135 
L 688.759322 589.496421 
L 703.891525 557.703972 
L 719.023729 618.745473 
L 734.155932 599.034155 
L 749.288136 601.577551 
L 764.420339 594.583212 
L 779.552542 562.790764 
L 794.684746 558.339821 
L 809.816949 609.207739 
L 824.949153 625.739812 
L 840.081356 616.202077 
L 855.213559 540.53605 
L 870.345763 542.443597 
L 885.477966 557.068123 
L 900.610169 546.258691 
L 915.742373 565.970009 
L 930.874576 554.524727 
L 946.00678 573.600197 
L 961.138983 578.051139 
L 976.271186 620.017171 
L 991.40339 619.381322 
L 1006.535593 549.437936 
L 1021.667797 581.230384 
L 1036.8 553.888878 
" style="fill:none;stroke:#9467bd;stroke-linecap:square;stroke-width:1.5;"/>
   </g>
   <g id="patch_27">
    <path d="M 144 630 
L 144 536.275862 
" style="fill:none;stroke:#000000;stroke-linecap:square;stroke-linejoin:miter;stroke-width:0.8;"/>
   </g>
   <g id="patch_28">
    <path d="M 1036.8 630 
L 1036.8 536.275862 
" style="fill:none;stroke:#000000;stroke-linecap:square;stroke-linejoin:miter;stroke-width:0.8;"/>
   </g>
   <g id="patch_29">
    <path d="M 144 630 
L 1036.8 630 
" style="fill:none;stroke:#000000;stroke-linecap:square;stroke-linejoin:miter;stroke-width:0.8;"/>
   </g>
   <g id="patch_30">
    <path d="M 144 536.275862 
L 1036.8 536.275862 
" style="fill:none;stroke:#000000;stroke-linecap:square;stroke-linejoin:miter;stroke-width:0.8;"/>
   </g>
   <g id="legend_5">
    <g id="patch_31">
     <path d="M 550.313281 625 
L 630.486719 625 
Q 632.486719 625 632.486719 623 
L 632.486719 609.04375 
Q 632.486719 607.04375 630.486719 607.04375 
L 550.313281 607.04375 
Q 548.313281 607.04375 548.313281 609.04375 
L 548.313281 623 
Q 548.313281 625 550.313281 625 
z
" style="fill:#ffffff;opacity:0.8;stroke:#cccccc;stroke-linejoin:miter;"/>
    </g>
    <g id="line2d_127">
     <path d="M 552.313281 615.142188 
L 572.313281 615.142188 
" style="fill:none;stroke:#9467bd;stroke-linecap:square;stroke-width:1.5;"/>
    </g>
    <g id="line2d_128"/>
    <g id="text_24">
     <!-- column_4 -->
     <defs>
      <path d="M 37.796875 64.3125 
L 12.890625 25.390625 
L 37.796875 25.390625 
z
M 35.203125 72.90625 
L 47.609375 72.90625 
L 47.609375 25.390625 
L 58.015625 25.390625 
L 58.015625 17.1875 
L 47.609375 17.1875 
L 47.609375 0 
L 37.796875 0 
L 37.796875 17.1875 
L 4.890625 17.1875 
L 4.890625 26.703125 
z
" id="DejaVuSans-52"/>
     </defs>
     <g transform="translate(580.313281 618.642188)scale(0.1 -0.1)">
      <use xlink:href="#DejaVuSans-99"/>
      <use x="54.980469" xlink:href="#DejaVuSans-111"/>
      <use x="116.162109" xlink:href="#DejaVuSans-108"/>
      <use x="143.945312" xlink:href="#DejaVuSans-117"/>
      <use x="207.324219" xlink:href="#DejaVuSans-109"/>
      <use x="304.736328" xlink:href="#DejaVuSans-110"/>
      <use x="368.115234" xlink:href="#DejaVuSans-95"/>
      <use x="418.115234" xlink:href="#DejaVuSans-52"/>
     </g>
    </g>
   </g>
  </g>
 </g>
 <defs>
  <clipPath id="p3ae565c0f6">
   <rect height="93.724138" width="892.8" x="144" y="86.4"/>
  </clipPath>
  <clipPath id="p80ad0c8415">
   <rect height="93.724138" width="892.8" x="144" y="198.868966"/>
  </clipPath>
  <clipPath id="paa2c941a79">
   <rect height="93.724138" width="892.8" x="144" y="311.337931"/>
  </clipPath>
  <clipPath id="p3073838cc7">
   <rect height="93.724138" width="892.8" x="144" y="423.806897"/>
  </clipPath>
  <clipPath id="pe82ac57467">
   <rect height="93.724138" width="892.8" x="144" y="536.275862"/>
  </clipPath>
 </defs>
</svg>
